<?xml version="1.0" encoding="UTF-8"?>
<svg version="1.1" xmlns="http://www.w3.org/2000/svg" width="200" height="200">
<path d="M0 0 C0.798685 -0.03542908 1.59737 -0.07085815 2.42025757 -0.10736084 C6.10198083 -0.23264012 9.78361248 -0.32209581 13.46679688 -0.39160156 C15.39518334 -0.43806093 17.32318483 -0.50603694 19.25 -0.59667969 C37.78929201 -1.45258499 37.78929201 -1.45258499 45.51025391 5.54589844 C47.40491548 7.41029559 49.19873911 9.33983403 51.01025391 11.28808594 C52.86148775 12.85821153 54.73308708 14.40506655 56.63525391 15.91308594 C57.94816406 16.98236328 57.94816406 16.98236328 59.28759766 18.07324219 C60.18607422 18.80414063 61.08455078 19.53503906 62.01025391 20.28808594 C64.0738027 21.97430755 66.13572061 23.66251015 68.19775391 25.35058594 C69.11943359 26.1046875 70.04111328 26.85878906 70.99072266 27.63574219 C71.65716797 28.18101562 72.32361328 28.72628906 73.01025391 29.28808594 C77.10213441 27.63749646 79.98893132 24.71630588 83.13525391 21.72558594 C84.29625745 20.63786072 85.45772045 19.55062572 86.61962891 18.46386719 C87.19261719 17.92584473 87.76560547 17.38782227 88.35595703 16.83349609 C90.6753263 14.66678897 93.02645576 12.53672783 95.38525391 10.41308594 C96.11486328 9.75566406 96.84447266 9.09824219 97.59619141 8.42089844 C98.39283203 7.71707031 99.18947266 7.01324219 100.01025391 6.28808594 C100.47703049 5.79424911 100.94380707 5.30041229 101.42472839 4.79161072 C105.54740837 0.7101212 108.53851695 -0.4063435 114.30662537 -0.46864319 C115.65845665 -0.43630836 115.65845665 -0.43630836 117.03759766 -0.40332031 C117.98534561 -0.40194565 118.93309357 -0.40057098 119.90956116 -0.39915466 C121.90572435 -0.39012764 123.90186894 -0.36658927 125.89770508 -0.3293457 C128.93534133 -0.27463761 131.97022343 -0.26781687 135.00830078 -0.26855469 C136.95558987 -0.25380288 138.90286055 -0.23631515 140.85009766 -0.21582031 C142.19889259 -0.21081261 142.19889259 -0.21081261 143.57493591 -0.20570374 C149.60681885 -0.07110475 155.88353101 0.45294569 160.57188416 4.7040863 C170.33231288 15.94098973 165.01025391 27.94450645 165.01025391 44.28808594 C104.95025391 44.28808594 44.89025391 44.28808594 -16.98974609 44.28808594 C-16.98974609 11.28808594 -16.98974609 11.28808594 -12.98974609 5.28808594 C-8.7412143 2.08001091 -5.31933574 0.23516371 0 0 Z " fill="#000000" transform="translate(25.98974609375,149.7119140625)"/>
<path d="M0 0 C1.12728516 0.94166016 1.12728516 0.94166016 2.27734375 1.90234375 C2.99792969 2.49917969 3.71851563 3.09601562 4.4609375 3.7109375 C11.99074283 10.55750908 17.48231102 20.75803616 18.48046875 30.9831543 C18.58078739 33.23154592 18.60629538 35.4643081 18.58984375 37.71484375 C18.58247192 38.90678345 18.58247192 38.90678345 18.57495117 40.12280273 C18.31722585 53.0553274 13.24697243 63.28201167 4.59375 72.7890625 C1.36331444 75.73622209 -2.22217824 77.73639906 -6.109375 79.7109375 C-9.89626803 82.59125264 -9.89626803 82.59125264 -13.72265625 91.90234375 C-23.62265625 91.90234375 -33.52265625 91.90234375 -43.72265625 91.90234375 C-46.19765625 86.95234375 -46.19765625 86.95234375 -48.72265625 81.90234375 C-51.18269932 79.67798741 -51.18269932 79.67798741 -53.97265625 78.40234375 C-64.99521743 72.02320337 -71.75692455 62.20325748 -75.27612305 49.97998047 C-78.03722333 37.1330896 -75.87660965 23.32505917 -69.03515625 12.21484375 C-61.57502236 1.94553226 -51.90128275 -6.29147508 -39.09375 -8.84765625 C-24.78565844 -10.35625239 -11.78477642 -9.03435858 0 0 Z M-48.72265625 38.90234375 C-49.74872965 40.21571771 -50.7499295 41.5489848 -51.72265625 42.90234375 C-50.33240234 43.77052734 -50.33240234 43.77052734 -48.9140625 44.65625 C-43.34410964 48.74684064 -39.37425119 52.56325395 -38.00878906 59.56054688 C-37.0258938 68.6140701 -37.32869956 77.82118011 -37.72265625 86.90234375 C-36.07265625 86.90234375 -34.42265625 86.90234375 -32.72265625 86.90234375 C-30.11875613 66.78636541 -30.11875613 66.78636541 -36.02734375 48.37109375 C-39.53955051 44.60993339 -43.37116962 41.63397062 -47.72265625 38.90234375 C-48.05265625 38.90234375 -48.38265625 38.90234375 -48.72265625 38.90234375 Z M-9.72265625 38.90234375 C-16.07271885 43.00720565 -23.37468846 47.9701358 -25.15203857 55.79199219 C-26.54830278 66.02337964 -25.59601713 76.66117973 -24.72265625 86.90234375 C-23.07265625 86.90234375 -21.42265625 86.90234375 -19.72265625 86.90234375 C-19.76044189 86.03134033 -19.79822754 85.16033691 -19.8371582 84.26293945 C-20.73106384 57.65205631 -20.73106384 57.65205631 -15.76171875 50.94921875 C-12.75257517 47.73960481 -9.44706317 45.22815558 -5.72265625 42.90234375 C-7.04265625 41.58234375 -8.36265625 40.26234375 -9.72265625 38.90234375 Z " fill="#000000" transform="translate(128.72265625,18.09765625)"/>
<path d="M0 0 C0.97610229 -0.00430527 0.97610229 -0.00430527 1.97192383 -0.00869751 C3.34359613 -0.01073306 4.71529779 -0.00523873 6.08691406 0.00732422 C8.18100165 0.02338765 10.27315961 0.00746093 12.3671875 -0.01171875 C13.70312924 -0.00973622 15.03906978 -0.00589235 16.375 0 C18.19064453 0.00507568 18.19064453 0.00507568 20.04296875 0.01025391 C23.42778901 0.42810051 24.85778628 0.93448112 27.1875 3.3984375 C27.918868 9.24938152 27.918868 9.24938152 26.109375 12.09228516 C23.14530561 14.10673781 20.5465161 13.78768487 17 13.796875 C16.30108643 13.79974518 15.60217285 13.80261536 14.88208008 13.80557251 C13.40607899 13.80761175 11.93005079 13.80209153 10.45410156 13.78955078 C8.19534862 13.7734933 5.93838482 13.7894022 3.6796875 13.80859375 C2.24478772 13.80661129 0.80988905 13.80276756 -0.625 13.796875 C-1.93082031 13.79349121 -3.23664063 13.79010742 -4.58203125 13.78662109 C-7.8125 13.3984375 -7.8125 13.3984375 -9.734375 12.09228516 C-11.58600181 9.18318488 -11.22833197 6.72509323 -10.8125 3.3984375 C-7.56068473 -0.04075371 -4.57667759 0.01279423 0 0 Z " fill="#000000" transform="translate(91.8125,111.6015625)"/>
<path d="M0 0 C1.14984375 -0.00386719 2.2996875 -0.00773437 3.484375 -0.01171875 C4.68578125 -0.00011719 5.8871875 0.01148437 7.125 0.0234375 C8.32640625 0.01183594 9.5278125 0.00023438 10.765625 -0.01171875 C12.49039063 -0.00591797 12.49039063 -0.00591797 14.25 0 C15.83167969 0.00507568 15.83167969 0.00507568 17.4453125 0.01025391 C20.125 0.3984375 20.125 0.3984375 21.96875 1.73974609 C23.78191278 4.34080773 23.50236357 6.31663505 23.125 9.3984375 C21.96875 11.55883789 21.96875 11.55883789 20.125 13.3984375 C17.4453125 13.90014648 17.4453125 13.90014648 14.25 13.89453125 C13.10015625 13.89517578 11.9503125 13.89582031 10.765625 13.89648438 C8.96351562 13.86651367 8.96351562 13.86651367 7.125 13.8359375 C5.32289062 13.84657227 5.32289062 13.84657227 3.484375 13.85742188 C-5.31858823 13.79327472 -5.31858823 13.79327472 -7.71875 12.09008789 C-9.66380614 9.24437547 -9.23097385 6.72086009 -8.875 3.3984375 C-6.48072795 -0.10904972 -4.0572267 0.01301983 0 0 Z " fill="#000000" transform="translate(92.875,127.6015625)"/>
<path d="M0 0 C7.59 0 15.18 0 23 0 C23 2.64 23 5.28 23 8 C15.41 8 7.82 8 0 8 C0 5.36 0 2.72 0 0 Z " fill="#000000" transform="translate(159,46)"/>
<path d="M0 0 C7.59 0 15.18 0 23 0 C23 2.64 23 5.28 23 8 C15.41 8 7.82 8 0 8 C0 5.36 0 2.72 0 0 Z " fill="#000000" transform="translate(18,46)"/>
<path d="M0 0 C0.33 1.98 0.66 3.96 1 6 C-5.87619244 8.93841629 -12.74839665 11.180206 -20 13 C-20.66 10.69 -21.32 8.38 -22 6 C-17.05713529 3.9671308 -12.0993638 1.97691214 -7.0625 0.1875 C-6.35222656 -0.06644531 -5.64195312 -0.32039062 -4.91015625 -0.58203125 C-3 -1 -3 -1 0 0 Z " fill="#000000" transform="translate(166,8)"/>
<path d="M0 0 C3.15058384 1.44822713 6.29456973 2.91024622 9.4375 4.375 C10.78424805 4.99375 10.78424805 4.99375 12.15820312 5.625 C13.01220703 6.02460937 13.86621094 6.42421875 14.74609375 6.8359375 C15.93223267 7.38580322 15.93223267 7.38580322 17.14233398 7.94677734 C19 9 19 9 20 11 C18.5625 13.625 18.5625 13.625 17 16 C12.13127946 15.40440894 8.40671159 13.27522585 4.1875 10.9375 C3.14819336 10.37192383 3.14819336 10.37192383 2.08789062 9.79492188 C0.38871015 8.86916148 -1.30609425 7.93537688 -3 7 C-1.125 1.125 -1.125 1.125 0 0 Z " fill="#000000" transform="translate(151,87)"/>
<path d="M0 0 C2.8290723 2.8290723 3.37611108 3.38144425 4 7 C1.26070622 8.54074107 -1.49287839 10.05392858 -4.25 11.5625 C-5.02730469 12.00013672 -5.80460937 12.43777344 -6.60546875 12.88867188 C-7.35957031 13.29794922 -8.11367188 13.70722656 -8.890625 14.12890625 C-9.92751465 14.70233765 -9.92751465 14.70233765 -10.98535156 15.28735352 C-13 16 -13 16 -15.13183594 15.92944336 C-17 15 -17 15 -19 10 C-12.73 6.7 -6.46 3.4 0 0 Z " fill="#000000" transform="translate(48,87)"/>
<path d="M0 0 C4.73789165 1.44323469 8.98858151 3.37226733 13.375 5.625 C14.33599609 6.11226562 14.33599609 6.11226562 15.31640625 6.609375 C16.87947501 7.40257407 18.44000622 8.20077031 20 9 C19.1875 11.9375 19.1875 11.9375 18 15 C15 16 15 16 13.00708008 15.28735352 C11.89949341 14.71392212 11.89949341 14.71392212 10.76953125 14.12890625 C9.56586914 13.51499023 9.56586914 13.51499023 8.33789062 12.88867188 C7.50451172 12.45103516 6.67113281 12.01339844 5.8125 11.5625 C4.5450293 10.9118457 4.5450293 10.9118457 3.25195312 10.24804688 C1.16321229 9.17417447 -0.92030626 8.09126178 -3 7 C-2.01 4.69 -1.02 2.38 0 0 Z " fill="#000000" transform="translate(35,6)"/>
<path d="M0 0 C2.64 0 5.28 0 8 0 C8 5.61 8 11.22 8 17 C5.36 17 2.72 17 0 17 C0 11.39 0 5.78 0 0 Z " fill="#000000" transform="translate(96,146)"/>
<path d="M0 0 C2.31 0 4.62 0 7 0 C7 3.63 7 7.26 7 11 C4.69 11 2.38 11 0 11 C0 7.37 0 3.74 0 0 Z " fill="#000000" transform="translate(109,146)"/>
<path d="M0 0 C2.31 0 4.62 0 7 0 C7 3.63 7 7.26 7 11 C4.69 11 2.38 11 0 11 C0 7.37 0 3.74 0 0 Z " fill="#000000" transform="translate(84,146)"/>
</svg>
